HIERARCHY
ROOT Hips
{
	OFFSET -0.001795 -0.223333 0.028219
	CHANNELS 6 Xposition Yposition Zposition Zrotation Yrotation Xrotation 
	JOINT LeftUpLeg
	{
		OFFSET 0.069520 -0.091406 -0.006815
		CHANNELS 3 Zrotation Yrotation Xrotation
		JOINT LeftLeg
		{
			OFFSET 0.034277 -0.375199 -0.004496
			CHANNELS 3 Zrotation Yrotation Xrotation
			JOINT LeftFoot
			{
				OFFSET -0.013596 -0.397961 -0.043693
				CHANNELS 3 Zrotation Yrotation Xrotation
				JOINT LeftToe
				{
					OFFSET 0.026358 -0.055791 0.119288
					CHANNELS 3 Zrotation Yrotation Xrotation
					End Site
					{
						OFFSET 0.000000 0.000000 0.000000
					}
				}
			}
		}
	}
	JOINT RightUpLeg
	{
		OFFSET -0.067670 -0.090522 -0.004320
		CHANNELS 3 Zrotation Yrotation Xrotation
		JOINT RightLeg
		{
			OFFSET -0.038290 -0.382569 -0.008850
			CHANNELS 3 Zrotation Yrotation Xrotation
			JOINT RightFoot
			{
				OFFSET 0.015774 -0.398415 -0.042312
				CHANNELS 3 Zrotation Yrotation Xrotation
				JOINT RightToe
				{
					OFFSET -0.025372 -0.048144 0.123348
					CHANNELS 3 Zrotation Yrotation Xrotation
					End Site
					{
						OFFSET 0.000000 0.000000 0.000000
					}
				}
			}
		}
	}
	JOINT Spine
	{
		OFFSET -0.002533 0.108963 -0.026696
		CHANNELS 3 Zrotation Yrotation Xrotation
		JOINT Spine1
		{
			OFFSET 0.005487 0.135180 0.001092
			CHANNELS 3 Zrotation Yrotation Xrotation
			JOINT Spine2
			{
				OFFSET 0.001457 0.052922 0.025425
				CHANNELS 3 Zrotation Yrotation Xrotation
				JOINT Neck
				{
					OFFSET -0.002778 0.213870 -0.042857
					CHANNELS 3 Zrotation Yrotation Xrotation
					JOINT Head
					{
						OFFSET 0.005152 0.064970 0.051349
						CHANNELS 3 Zrotation Yrotation Xrotation
						End Site
						{
							OFFSET 0.000000 0.000000 0.000000
						}
					}
				}
				JOINT LeftShoulder
				{
					OFFSET 0.078845 0.121749 -0.034090
					CHANNELS 3 Zrotation Yrotation Xrotation
					JOINT LeftArm
					{
						OFFSET 0.090977 0.030469 -0.008868
						CHANNELS 3 Zrotation Yrotation Xrotation
						JOINT LeftForeArm
						{
							OFFSET 0.259612 -0.012772 -0.027456
							CHANNELS 3 Zrotation Yrotation Xrotation
							JOINT LeftHand
							{
								OFFSET 0.249234 0.008986 -0.001171
								CHANNELS 3 Zrotation Yrotation Xrotation
								End Site
								{
									OFFSET 0.000000 0.000000 0.000000
								}
							}
						}
					}
				}
				JOINT RightShoulder
				{
					OFFSET -0.081759 0.118833 -0.038615
					CHANNELS 3 Zrotation Yrotation Xrotation
					JOINT RightArm
					{
						OFFSET -0.096012 0.032551 -0.009143
						CHANNELS 3 Zrotation Yrotation Xrotation
						JOINT RightForeArm
						{
							OFFSET -0.253742 -0.013329 -0.021401
							CHANNELS 3 Zrotation Yrotation Xrotation
							JOINT RightHand
							{
								OFFSET -0.255298 0.007772 -0.005559
								CHANNELS 3 Zrotation Yrotation Xrotation
								End Site
								{
									OFFSET 0.000000 0.000000 0.000000
								}
							}
						}
					}
				}
			}
		}
	}
}
MOTION
Frames: 16
Frame Time: 0.050000
-0.072268 0.955786 -0.012992 -4.227316 24.193785 15.642219 12.775711 -3.028937 -36.464124 -2.183235 -1.592948 24.511732 -0.170290 8.632692 15.922271 0.000000 0.000000 0.000000 3.858011 1.779066 -19.220571 -1.381774 0.281303 3.445318 -2.605313 -6.499532 9.084086 0.000000 0.000000 0.000000 -8.638599 -0.169281 23.003023 -12.322304 4.834877 -1.746635 -9.719886 18.172549 -0.583006 15.961999 -7.170819 -12.523553 0.000000 0.000000 0.000000 8.967844 -37.146884 10.495351 22.895931 -37.768690 -13.363890 44.561244 -0.137188 -2.046458 0.000000 0.000000 0.000000 -30.057921 28.768033 2.684626 -29.942759 59.698300 -9.322445 -43.582802 4.983862 0.392801 0.000000 0.000000 0.000000 
-0.073637 0.952034 -0.014639 -3.976576 24.282614 15.038249 12.646882 -3.022883 -36.161538 -2.223573 -1.626858 24.769142 -0.431515 8.185559 15.752484 0.000000 0.000000 0.000000 3.143954 1.692513 -19.430118 -0.730356 0.183782 4.866771 -2.522175 -6.299132 7.877767 0.000000 0.000000 0.000000 -8.849837 -0.207854 23.785450 -12.187632 4.814203 -1.399843 -9.257827 19.099477 -0.379422 16.208552 -7.186493 -12.813974 0.000000 0.000000 0.000000 8.201055 -37.777919 10.561834 22.124019 -39.010729 -13.658205 45.994333 0.346870 -2.047656 0.000000 0.000000 0.000000 -30.187012 29.669257 2.825617 -32.717550 61.818310 -11.111177 -41.666456 0.450737 1.627385 0.000000 0.000000 0.000000 
-0.074951 0.947277 -0.015874 -3.644665 24.193528 14.744768 12.629088 -3.038834 -36.354780 -2.426238 -1.642303 25.420831 -0.673658 7.768636 15.688409 0.000000 0.000000 0.000000 2.499289 1.626456 -20.177630 -0.061399 0.051647 6.662569 -2.717734 -6.729178 6.442745 0.000000 0.000000 0.000000 -8.934264 -0.245854 24.448695 -12.542189 4.966237 -1.199909 -8.935674 19.484205 -0.264124 16.100407 -7.140076 -12.727976 0.000000 0.000000 0.000000 7.769513 -38.296092 10.635393 21.950301 -39.944575 -13.925264 46.460456 0.785548 -1.897349 0.000000 0.000000 0.000000 -30.533482 30.547071 2.923135 -35.732510 63.077601 -13.078576 -39.508522 -3.534138 2.588855 0.000000 0.000000 0.000000 
-0.076104 0.943005 -0.016747 -3.197829 24.649095 14.072019 12.400400 -3.091442 -35.973317 -3.002638 -1.547735 25.657183 -0.454352 8.061271 15.401898 0.000000 0.000000 0.000000 2.038798 1.541556 -20.367765 -0.007310 0.010880 8.237459 -2.980396 -7.287627 5.440462 0.000000 0.000000 0.000000 -8.836094 -0.407074 25.536522 -12.554394 4.975095 -1.217467 -8.758057 19.837952 -0.265090 16.146760 -7.739698 -11.443699 0.000000 0.000000 0.000000 6.509590 -39.439526 10.814129 20.567923 -40.285514 -13.402361 47.825313 -0.920848 -2.710872 0.000000 0.000000 0.000000 -29.482645 31.655515 3.533499 -36.552932 63.843826 -13.990405 -38.191904 -5.540034 2.963562 0.000000 0.000000 0.000000 
-0.077030 0.941811 -0.017314 -2.970748 24.501451 13.978020 12.306877 -3.052167 -35.645845 -2.993334 -1.484781 25.125082 -0.640626 7.924574 15.758769 0.000000 0.000000 0.000000 1.644285 1.482023 -20.362731 0.213023 -0.045147 8.647142 -2.756202 -6.801524 4.674876 0.000000 0.000000 0.000000 -8.420646 -0.506969 25.693618 -12.866234 5.093964 -1.146279 -8.491397 20.232455 -0.221756 16.188461 -7.959080 -11.012166 0.000000 0.000000 0.000000 6.129544 -39.736515 10.866097 19.283915 -41.253473 -13.220238 48.509579 -2.123568 -3.355936 0.000000 0.000000 0.000000 -28.649940 32.788412 4.140638 -37.379612 64.339617 -14.867003 -36.448308 -7.258822 3.172095 0.000000 0.000000 0.000000 
-0.077400 0.943084 -0.017733 -2.713868 24.580334 13.843832 12.276572 -3.002160 -35.121497 -3.091342 -1.379595 24.333595 -1.281527 7.247523 16.441629 0.000000 0.000000 0.000000 1.285969 1.410010 -19.718476 0.194909 -0.036632 8.274281 -2.413445 -6.013104 4.408893 0.000000 0.000000 0.000000 -8.172551 -0.584598 25.815669 -12.715029 5.034775 -1.115700 -8.076253 20.130359 -0.324101 15.949073 -8.391250 -9.721522 0.000000 0.000000 0.000000 4.860252 -39.446960 10.769122 16.965566 -41.326646 -12.093852 49.615492 -5.296037 -4.916986 0.000000 0.000000 0.000000 -27.278360 33.469683 4.837158 -36.099284 65.384317 -14.899546 -37.052625 -7.121793 3.134171 0.000000 0.000000 0.000000 
-0.077071 0.945249 -0.017797 -2.209460 24.521298 13.904822 11.573779 -2.998519 -34.081504 -3.040713 -1.242529 22.815087 -1.052249 7.723222 16.600950 0.000000 0.000000 0.000000 0.760318 1.314466 -19.046258 0.134864 -0.008683 7.362756 -2.290559 -5.732722 4.974040 0.000000 0.000000 0.000000 -7.729518 -0.624295 25.222830 -12.839008 5.084857 -0.416263 -7.603789 20.157082 -0.444498 15.763510 -8.643264 -8.904125 0.000000 0.000000 0.000000 3.287301 -38.961444 10.588220 13.707538 -41.720297 -10.692552 50.912544 -9.624302 -7.189659 0.000000 0.000000 0.000000 -25.040224 33.957862 5.816464 -31.258743 66.762926 -13.010306 -38.947894 -5.282533 2.758921 0.000000 0.000000 0.000000 
-0.076142 0.947164 -0.017935 -1.937696 24.292341 13.796018 11.241305 -2.927701 -33.253053 -3.270916 -1.048524 21.533567 -0.780261 8.538549 17.586251 0.000000 0.000000 0.000000 0.115991 1.205133 -18.024088 0.361972 -0.038154 6.091547 -1.794364 -4.631264 5.408124 0.000000 0.000000 0.000000 -7.152318 -0.710246 24.891149 -13.165100 5.211548 -0.260137 -6.911668 19.494047 -0.618195 14.754739 -8.497799 -7.621438 0.000000 0.000000 0.000000 1.428152 -37.683198 10.217868 9.185467 -41.505996 -8.469622 52.164977 -15.416359 -10.304936 0.000000 0.000000 0.000000 -21.566543 34.699571 7.416414 -22.328213 67.702696 -8.827155 -42.000319 -1.212198 1.722555 0.000000 0.000000 0.000000 
-0.075145 0.948379 -0.018384 -1.478408 23.945544 13.488754 10.491360 -2.883302 -32.188899 -3.280668 -0.941531 20.479364 -0.330444 9.423604 18.188632 0.000000 0.000000 0.000000 -0.262566 1.143303 -17.376918 0.049257 0.028981 5.892634 -1.634535 -4.300922 5.506092 0.000000 0.000000 0.000000 -6.604905 -0.773667 24.432369 -13.165773 5.238884 0.229498 -6.581447 19.158088 -0.361262 14.426081 -8.321035 -7.489551 0.000000 0.000000 0.000000 0.000680 -36.533350 9.847303 5.130862 -41.557956 -6.717350 52.812631 -20.680374 -13.228112 0.000000 0.000000 0.000000 -17.428366 34.311077 8.911088 -9.361709 68.136977 -1.775757 -44.715023 5.282682 -0.341917 0.000000 0.000000 0.000000 
-0.074282 0.949391 -0.019301 -1.385077 23.481622 13.542039 10.478826 -2.796899 -31.850731 -3.299809 -0.826990 19.527004 -0.565619 9.508728 19.475838 0.000000 0.000000 0.000000 -0.810437 1.076916 -17.177801 0.373716 -0.028813 5.621774 -1.084802 -3.094000 5.459147 0.000000 0.000000 0.000000 -6.086328 -0.787176 23.675802 -12.904438 5.150596 0.619100 -6.168294 18.496889 -0.730887 13.675695 -8.141943 -6.648992 0.000000 0.000000 0.000000 -1.582856 -35.253419 9.432322 -0.360450 -40.542192 -4.269016 52.983513 -27.375402 -16.894122 0.000000 0.000000 0.000000 -13.126999 33.957463 10.611865 5.584494 66.696130 6.303826 -46.376098 14.193617 -3.505563 0.000000 0.000000 0.000000 
-0.073438 0.950646 -0.020264 -1.501730 22.320949 13.227394 10.450121 -2.609633 -31.183186 -3.278575 -0.717355 18.750194 -0.032633 10.612035 21.027054 0.000000 0.000000 0.000000 -0.704949 1.120280 -17.018703 0.108036 0.035592 5.433007 -0.637493 -2.239293 6.044428 0.000000 0.000000 0.000000 -5.545236 -0.783758 22.976379 -12.451451 5.036204 1.261123 -6.036873 18.024499 -0.545289 13.532391 -8.242571 -6.234957 0.000000 0.000000 0.000000 -3.405238 -33.472636 8.786408 -4.686555 -39.166998 -2.390416 51.850418 -33.820804 -19.886496 0.000000 0.000000 0.000000 -9.020119 32.611500 11.765638 19.995271 62.979893 13.045429 -47.166172 25.522310 -7.615292 0.000000 0.000000 0.000000 
-0.072360 0.951862 -0.020886 -1.525470 21.691529 13.213466 10.509033 -2.461467 -30.463251 -3.458896 -0.576016 17.774129 0.121091 10.754995 21.103465 0.000000 0.000000 0.000000 -0.986564 1.101357 -17.098813 0.159926 0.031664 5.373670 -0.084867 -1.140470 6.568018 0.000000 0.000000 0.000000 -4.824971 -0.860411 22.372928 -11.095915 4.518648 1.373991 -6.451808 16.603349 -0.158633 12.905610 -8.114537 -5.490753 0.000000 0.000000 0.000000 -3.816783 -31.799883 8.375179 -8.852700 -36.218420 -0.769911 50.755480 -40.648310 -23.157136 0.000000 0.000000 0.000000 -6.368541 30.759586 11.987816 31.493970 58.159571 17.015927 -47.905779 37.674190 -12.175718 0.000000 0.000000 0.000000 
-0.071194 0.952590 -0.020628 -1.568576 20.525194 13.031471 10.458940 -2.281378 -29.687834 -3.648701 -0.430695 16.916643 1.022976 12.073891 22.113318 0.000000 0.000000 0.000000 -0.954184 1.131322 -16.808644 -0.136734 0.093388 4.584628 0.431531 -0.295656 7.594809 0.000000 0.000000 0.000000 -4.413825 -0.816847 21.525342 -10.346073 4.248579 1.442574 -6.288581 15.636909 0.221670 12.262272 -8.130516 -4.349374 0.000000 0.000000 0.000000 -5.251156 -30.391823 7.940186 -10.670942 -32.371233 0.024865 48.669919 -49.101427 -26.443595 0.000000 0.000000 0.000000 -3.760940 27.638840 11.545395 39.369337 52.091356 17.705377 -47.823883 51.102713 -16.992860 0.000000 0.000000 0.000000 
-0.069959 0.953346 -0.019632 -1.727399 19.784854 13.062689 10.882556 -2.120817 -29.330191 -3.989387 -0.304959 16.510584 0.980804 11.996151 22.503939 0.000000 0.000000 0.000000 -1.171590 1.117548 -16.602590 -0.409890 0.138422 3.920510 1.645871 2.055388 8.308599 0.000000 0.000000 0.000000 -3.934635 -0.801231 20.556054 -8.938339 3.676879 1.690076 -6.500118 14.216716 -0.115376 11.348766 -8.250880 -2.387249 0.000000 0.000000 0.000000 -5.110957 -27.200503 6.975952 -12.580690 -28.746671 0.535300 47.997436 -59.136032 -31.850013 0.000000 0.000000 0.000000 -2.704926 23.564273 10.015526 46.628151 44.981404 17.219707 -47.599907 65.145829 -22.071459 0.000000 0.000000 0.000000 
-0.068586 0.953846 -0.017682 -1.976433 18.681587 12.801022 11.416664 -1.906436 -28.931253 -4.582399 -0.182923 17.328151 1.230705 11.847451 21.531066 0.000000 0.000000 0.000000 -1.154093 1.149862 -16.595484 -0.366515 0.137075 3.921631 2.366317 3.216220 9.113403 0.000000 0.000000 0.000000 -3.570205 -0.721514 19.213340 -7.646892 3.163503 1.286918 -6.372718 14.092932 0.353594 10.914899 -8.894952 -0.103085 0.000000 0.000000 0.000000 -6.195420 -24.489852 5.889531 -13.189881 -24.825179 0.658949 47.266322 -69.881679 -37.921024 0.000000 0.000000 0.000000 -0.069205 18.430264 8.586718 48.537592 36.616722 13.125371 -35.301656 80.278994 -17.663891 0.000000 0.000000 0.000000 
-0.066626 0.954809 -0.015078 -2.381470 18.013495 12.787256 11.868092 -1.766202 -28.736353 -5.032086 -0.065390 17.522696 1.965214 12.651117 21.365520 0.000000 0.000000 0.000000 -0.965486 1.204516 -16.912510 -0.513263 0.165710 3.935839 3.208807 4.427937 10.485039 0.000000 0.000000 0.000000 -3.107257 -0.696563 18.010320 -6.168166 2.553265 0.900669 -6.475345 13.764072 -0.000645 10.711707 -9.537586 1.741103 0.000000 0.000000 0.000000 -5.763935 -20.495709 4.528475 -14.646659 -22.209787 0.802454 42.457448 -81.213911 -41.684657 0.000000 0.000000 0.000000 1.107102 13.369004 6.610560 48.606471 28.036667 8.755235 90.054042 84.673258 99.890422 0.000000 0.000000 0.000000 
